<?xml version="1.0" encoding="utf-8"?>
<!DOCTYPE svg PUBLIC "-//W3C//DTD SVG 20010904//EN" "http://www.w3.org/TR/2001/REC-SVG-20010904/DTD/svg10.dtd">
<svg version="1.0" xmlns="http://www.w3.org/2000/svg" width="98px" height="98px" viewBox="0 0 98 98" preserveAspectRatio="xMidYMid meet">
 <g fill="#ffffff">
  <path d="M49.7 89 c-2.1 -2.8 -4.5 -5 -5.6 -5 -1 0 -3.9 1.6 -6.4 3.5 -2.5 1.9 -5.1 3.5 -5.7 3.5 -1.4 0 -3 -4.4 -3 -8.5 0 -5.4 -2 -6.6 -10.1 -5.9 -8 0.8 -8.3 0.4 -4.8 -7.6 1.2 -2.7 1.9 -5.7 1.5 -6.6 -0.3 -0.8 -3.3 -2.7 -6.6 -4.1 -3.3 -1.5 -6 -3.2 -6 -3.9 0 -0.8 2.3 -3 5 -5.1 6 -4.5 6.2 -6.2 1.5 -12.2 -1.9 -2.4 -3.5 -5 -3.5 -5.7 0 -1.4 0.6 -1.6 9.5 -3.1 l5 -0.8 -0.3 -7.7 c-0.3 -9 0.1 -9.3 8.4 -5.8 2.6 1.1 5.4 1.8 6.4 1.5 0.9 -0.3 2.8 -3.2 4.3 -6.5 1.4 -3.3 3.2 -6 3.9 -6 0.8 0 3.1 2.2 5.1 5 2.1 2.8 4.5 5 5.6 5 1 0 3.9 -1.6 6.4 -3.5 2.5 -1.9 5.1 -3.5 5.7 -3.5 1.4 0 3 4.4 3 8.5 0 5.4 2 6.6 10.1 5.9 8 -0.8 8.3 -0.4 4.8 7.6 -1.2 2.7 -1.9 5.7 -1.5 6.6 0.3 0.8 3.3 2.7 6.6 4.1 3.3 1.5 6 3.2 6 3.9 0 0.8 -2.2 3 -5 5.1 -6 4.5 -6.2 6.2 -1.5 12.2 1.9 2.4 3.5 5 3.5 5.7 0 1.4 -0.6 1.6 -9.5 3.1 l-5 0.8 0.3 7.8 c0.3 8.9 -0.1 9.2 -8.4 5.7 -2.6 -1.1 -5.4 -1.8 -6.4 -1.5 -0.9 0.3 -2.8 3.2 -4.3 6.5 -1.4 3.3 -3.2 6 -3.9 6 -0.8 0 -3.1 -2.2 -5.1 -5z m8.8 -15.7 c6.9 -2.3 13.9 -9.5 15.9 -16.4 3.2 -10.5 1 -19.6 -6.3 -26.9 -10.7 -10.7 -27.5 -10.7 -38.2 0 -10.4 10.4 -10.4 26.6 0 37 7.6 7.6 18.1 9.9 28.6 6.3z"/>
 </g>
</svg>