<?xml version="1.0" encoding="utf-8"?>
<!DOCTYPE svg PUBLIC "-//W3C//DTD SVG 20010904//EN" "http://www.w3.org/TR/2001/REC-SVG-20010904/DTD/svg10.dtd">
<svg version="1.0" xmlns="http://www.w3.org/2000/svg" width="324px" height="324px" viewBox="0 0 324 324" preserveAspectRatio="xMidYMid meet">
 <g fill="#ffffff">
  <path d="M146.7 317.9 c-57.2 -5 -107.1 -41.5 -130 -94.9 -8.3 -19.5 -12 -38.2 -12 -61 0 -35.8 10.2 -66.2 31.9 -94.9 40.1 -53.3 110.9 -74.9 175.3 -53.5 54.7 18.2 95 65.7 104.8 123.4 2.1 12.6 2.1 37.4 0 50 -9.8 57.8 -50.1 105.2 -104.9 123.5 -13 4.3 -22.6 6.2 -36.9 7.5 -12.6 1.1 -15.3 1.1 -28.2 -0.1z m16 -10.9 c2.3 -3.1 4.5 -5 5.7 -5 1.1 0 3.9 2 6.2 4.5 4.8 5.3 6.5 5.2 9.4 -0.5 2 -3.9 4.6 -7 5.9 -7 0.4 0 2.8 1.6 5.4 3.6 2.5 2 5.4 3.4 6.4 3.2 1.1 -0.2 2.6 -2.4 4 -5.8 2.6 -6.7 4.4 -7.2 11.2 -3.4 5.9 3.3 7.6 2.6 8.6 -3.9 1.4 -8.3 3 -9.1 11 -5.7 6 2.6 7.1 1.8 7.8 -6.1 0.7 -8.1 1.3 -8.6 8.8 -7 3.4 0.7 6.5 0.9 7 0.4 0.4 -0.4 0.9 -3.9 1.1 -7.8 l0.3 -7 7.5 -0.5 c8.6 -0.6 9 -1 6.6 -8.9 -1.3 -4.5 -1.3 -5.2 0 -6.6 0.9 -0.8 3.3 -1.5 5.7 -1.5 2.3 0 5.3 -0.3 6.5 -0.7 2.8 -0.7 2.7 -2.7 -0.4 -10.6 -2.2 -5.6 -2 -5.8 6.2 -7.6 3.2 -0.8 5.8 -1.9 6.1 -2.8 0.4 -0.9 -0.6 -3.7 -2 -6.4 -3.9 -6.8 -3.6 -8.3 2.1 -10.4 8.5 -3.2 8.9 -4.3 3.7 -10.5 -4.9 -5.8 -4.6 -7.4 2 -11.1 3.5 -1.9 5.5 -3.8 5.5 -4.9 0 -1 -2 -3.4 -4.5 -5.4 -2.5 -2.1 -4.5 -4.5 -4.5 -5.5 0 -1 2.3 -3.9 5.1 -6.4 5.8 -5.3 5.8 -5.6 -1.8 -10.8 -2.4 -1.7 -4.3 -3.8 -4.3 -4.7 0 -1 1.8 -3.6 4 -5.7 2.2 -2.1 4 -4.7 4 -5.6 0 -1.1 -2.1 -2.7 -6 -4.5 -7.1 -3.2 -7.6 -5 -3 -11 4.8 -6.3 4.3 -7.2 -6.2 -10.4 -2 -0.6 -3.9 -1.7 -4.1 -2.4 -0.3 -0.8 0.5 -3.7 1.9 -6.6 3.7 -8 3.5 -8.4 -5.5 -9.6 -7.5 -1 -7.8 -1.3 -5.6 -8.2 2.5 -8.4 2.1 -9.1 -6.7 -9.4 l-7.3 -0.3 0.3 -7.4 c0.1 -4.4 -0.2 -7.7 -0.8 -8.1 -0.6 -0.4 -3.8 -0.2 -7.2 0.3 -5.4 0.9 -6.2 0.8 -7.4 -0.8 -0.8 -1.1 -1.4 -4.4 -1.4 -7.7 0 -7.1 -0.7 -7.5 -8.4 -5.3 -7.1 2.1 -8.2 1.3 -9.1 -6 -1 -7.5 -2.2 -8.2 -8.5 -5 -7.3 3.7 -8.9 3.2 -10.9 -3.4 -2.3 -7.6 -3.9 -8.3 -9.6 -4.3 -6.3 4.4 -8 4.2 -10.9 -1.6 -3.9 -7.7 -4.8 -8 -9.9 -3.3 -5.6 5.2 -8.4 5.3 -11.7 0.4 -3 -4.4 -4.8 -6.3 -6.1 -6.3 -0.5 0 -2.5 2.2 -4.6 5 -2.3 3.1 -4.5 5 -5.7 5 -1.1 0 -3.9 -2 -6.2 -4.5 -4.8 -5.3 -6.5 -5.2 -9.4 0.5 -2 3.9 -4.6 7 -5.9 7 -0.4 0 -2.8 -1.6 -5.4 -3.6 -2.5 -2 -5.4 -3.4 -6.4 -3.2 -1.1 0.2 -2.6 2.4 -4 5.8 -2.6 6.7 -4.4 7.2 -11.2 3.4 -5.9 -3.3 -7.6 -2.6 -8.6 3.9 -1.4 8.3 -3 9.1 -11 5.7 -6 -2.6 -7.1 -1.8 -7.8 6.1 -0.7 8.1 -1.3 8.6 -8.8 7 -3.4 -0.7 -6.5 -0.9 -7 -0.4 -0.4 0.4 -0.9 4 -1.1 7.8 l-0.3 7 -7.5 0.5 c-8.7 0.6 -9 1.1 -6.7 9 1.9 6.3 0.6 8 -5.6 8 -2.3 0 -5.3 0.3 -6.5 0.7 -2.8 0.7 -2.7 2.7 0.4 10.6 2.2 5.6 2 5.8 -6.2 7.6 -3.2 0.8 -5.8 1.9 -6.1 2.8 -0.4 0.9 0.6 3.7 2 6.4 3.9 6.8 3.6 8.3 -2 10.4 -8.6 3.2 -9 4.3 -3.8 10.5 4.8 5.7 4.5 7.4 -1.5 10.8 -7 3.8 -7.3 5.7 -1.6 10.5 2.5 2.1 4.6 4.7 4.6 5.6 0 1 -2.3 3.9 -5.1 6.4 -5.8 5.3 -5.8 5.6 1.8 10.8 2.4 1.7 4.3 3.8 4.3 4.7 0 1 -1.8 3.6 -4 5.7 -2.2 2.1 -4 4.7 -4 5.6 0 1.1 2.1 2.7 6 4.5 7 3.2 7.4 4.5 3 10.9 -4.6 6.7 -4.3 7.3 6.2 10.5 2 0.6 3.9 1.7 4.1 2.4 0.3 0.8 -0.5 3.7 -1.9 6.6 -3.7 8 -3.5 8.4 5.5 9.6 7.5 1 7.8 1.3 5.6 8.2 -2.5 8.4 -2.1 9.1 6.7 9.4 l7.3 0.3 -0.3 7.4 c-0.1 4.4 0.2 7.7 0.8 8.1 0.6 0.4 3.8 0.2 7.2 -0.3 5.4 -0.9 6.2 -0.8 7.4 0.8 0.8 1.1 1.4 4.4 1.4 7.7 0 7.1 0.7 7.5 8.4 5.3 7.1 -2.1 8.2 -1.3 9.1 6 1 7.5 2.2 8.2 8.5 5 7.3 -3.7 8.9 -3.2 10.9 3.4 2.3 7.6 3.9 8.3 9.6 4.3 6.3 -4.4 8 -4.2 10.9 1.6 3.9 7.7 4.8 8 9.9 3.3 5.6 -5.2 8.4 -5.3 11.7 -0.4 3 4.4 4.8 6.3 6.1 6.3 0.5 0 2.5 -2.2 4.6 -5z"/>
 </g>
</svg>