<?xml version="1.0" encoding="utf-8"?>
<!DOCTYPE svg PUBLIC "-//W3C//DTD SVG 20010904//EN" "http://www.w3.org/TR/2001/REC-SVG-20010904/DTD/svg10.dtd">
<svg version="1.0" xmlns="http://www.w3.org/2000/svg" width="132px" height="132px" viewBox="0 0 132 132" preserveAspectRatio="xMidYMid meet">
 <g fill="#ffffff">
  <path d="M58.6 124.2 c-3.9 -7.8 -4.7 -8.1 -11.1 -3.8 -3 2 -5.9 3.6 -6.4 3.6 -1.1 0 -1.7 -1.8 -2.6 -8.3 -0.4 -2.8 -1.2 -5 -2.1 -5.4 -0.8 -0.3 -4.2 0 -7.5 0.7 -3.3 0.7 -6.3 1 -6.6 0.6 -0.4 -0.4 -0.1 -3.4 0.6 -6.7 1.5 -7.6 0.7 -8.9 -5.8 -8.9 -2.6 0 -5.6 -0.6 -6.6 -1.4 -1.8 -1.3 -1.7 -1.5 1.3 -6.3 1.8 -2.7 3.2 -5.7 3.2 -6.6 0 -1 -2.3 -2.8 -6 -4.7 -3.3 -1.7 -6 -3.4 -6 -3.9 0 -0.5 2.2 -2.8 5 -5.1 2.8 -2.3 5 -4.7 5 -5.2 0 -0.6 -2.1 -3.3 -4.6 -6 -5.3 -5.7 -5.1 -6.4 2.9 -8.8 6.2 -1.9 6.8 -3.5 3.7 -10.9 -2.9 -6.5 -2.2 -7.5 5 -6.8 3.2 0.3 6.3 0.1 7 -0.3 0.8 -0.5 1.1 -2.8 1 -6.6 -0.4 -9.8 -0.6 -9.7 7.6 -6.3 2.9 1.2 5.9 1.9 6.7 1.6 0.9 -0.3 2.1 -3 2.8 -6.1 1.8 -8.1 2.9 -8.6 8.2 -3.7 2.4 2.3 5.3 4.1 6.3 4.1 1.2 0 3.5 -2 5.7 -5 2.1 -2.8 4.2 -5 4.7 -5 0.5 0 2.1 2.2 3.4 4.8 3.9 7.8 4.7 8.1 11.1 3.8 3 -2 5.9 -3.6 6.4 -3.6 1.1 0 1.7 1.8 2.6 8.3 0.4 2.8 1.2 5 2.1 5.4 0.8 0.3 4.2 0 7.5 -0.7 3.3 -0.7 6.3 -1 6.6 -0.6 0.4 0.4 0.1 3.4 -0.6 6.7 -1.5 7.6 -0.7 8.9 5.8 8.9 2.6 0 5.6 0.6 6.6 1.4 1.8 1.3 1.7 1.5 -1.3 6.3 -1.8 2.7 -3.2 5.7 -3.2 6.6 0 1 2.3 2.8 6 4.7 3.3 1.7 6 3.4 6 3.9 0 0.5 -2.2 2.8 -5 5.1 -2.7 2.3 -5 4.7 -5 5.2 0 0.6 2.1 3.3 4.6 6 5.3 5.7 5.1 6.4 -2.9 8.8 -6.2 1.9 -6.8 3.5 -3.7 10.9 2.9 6.5 2.2 7.5 -5 6.8 -3.2 -0.3 -6.3 -0.1 -7 0.3 -0.8 0.5 -1.1 2.8 -1 6.6 0.4 9.8 0.6 9.7 -7.6 6.3 -2.9 -1.2 -5.9 -1.9 -6.7 -1.6 -0.9 0.3 -2.1 3 -2.8 6.1 -1.8 8.1 -2.9 8.6 -8.2 3.7 -2.4 -2.3 -5.3 -4.1 -6.3 -4.1 -1.2 0 -3.5 2 -5.7 5 -2.1 2.8 -4.2 5 -4.7 5 -0.5 0 -2.1 -2.2 -3.4 -4.8z m24.7 -22 c8.5 -4.2 15.2 -11 19.1 -19.2 2.9 -6 3.1 -7.3 3.1 -17 0 -9.7 -0.2 -11 -3.1 -17 -3.9 -8.3 -10.6 -15 -19.2 -19.2 -6.3 -3.1 -7.3 -3.3 -17.2 -3.3 -9.9 0 -10.9 0.2 -17.2 3.3 -8.6 4.2 -15.3 10.9 -19.2 19.2 -2.9 6 -3.1 7.3 -3.1 17 0 9.3 0.3 11.2 2.7 16.2 3.6 7.6 7.2 12.1 13.5 16.5 8.3 5.7 14.3 7.4 24.9 7 7.9 -0.2 10 -0.7 15.7 -3.5z"/>
 </g>
</svg>